# xmcd CD database file
#
# Track frame offsets:
#	150
#	10833
#	21448
#	35116
#	46947
#	63906
#	75626
#	89058
#	101995
#	123011
#	134618
#	146996
#	161552
#	172662
#	184803
#	196923
#	213303
#	225703
#	242184
#	256600
#
# Disc length: 3611 seconds
#
# Revision: 9
# Processed by: cddbd v1.5.2PL0 Copyright (c) Steve Scherf et al.
# Submitted via: CDex 1.70beta2
#
DISCID=170e1914
DTITLE=Various Artist - Casey Kasem Presents - America's Top Ten Hits - The 1960s - The Folk Years
DYEAR=2002
DGENRE=Top Hits
TTITLE0=The Lovin' Spoonful - Daydream
TTITLE1=The Byrds - Mr. Tambourine Man
TTITLE2=Scott McKenzie - San Francisco (Be Sure To Wear Some Flowers In Your Hair)
TTITLE3=We Five - You Were On My Mind
TTITLE4=Donovan - Mellow Yellow
TTITLE5=The Rooftop Singers - Walk Right In
TTITLE6=Spanky and Our Gang - Sunday Will Never Be The Same
TTITLE7=The Grass Roots - Let's Live For Today
TTITLE8=The Youngbloods - Get Together
TTITLE9=Peter, Paul and Mary - I Dig Rock and Roll Music
TTITLE10=The Seekers - I'll Never Find Another You
TTITLE11=Judy Collins - Both Sides Now
TTITLE12=The Lemon Pipers - Green Tambourine
TTITLE13=The Mamas and The Papas - California Dreamin'
TTITLE14=Peter and Gordon - A World Without Love
TTITLE15=Barry McGuire - Eve Of Destruction
TTITLE16=Nilsson - Everybody's Talkin'
TTITLE17=Oliver - Good Morning, Starshine
TTITLE18=Merrilee Rush and The Turnabouts - Angel Of The Morning
TTITLE19=Van Morrison - Brown Eyed Girl
EXTD=YEAR: 2002
EXTT0=
EXTT1=
EXTT2=
EXTT3=
EXTT4=
EXTT5=
EXTT6=
EXTT7=
EXTT8=
EXTT9=
EXTT10=
EXTT11=
EXTT12=
EXTT13=
EXTT14=
EXTT15=
EXTT16=
EXTT17=
EXTT18=
EXTT19=
PLAYORDER=
